<svg width="16" height="17" viewBox="0 0 16 17" fill="none" xmlns="http://www.w3.org/2000/svg">
<path d="M0 1.64614C0 1.01331 0.526012 0.5 1.17491 0.5H14.8251C15.474 0.5 16 1.01331 16 1.64614V15.3539C16 15.9869 15.474 16.5 14.8251 16.5L1.17491 16.5C0.526012 16.5 0 15.9869 0 15.3539V1.64614ZM4.94338 13.8937V6.66876H2.54196V13.8937H4.94338ZM3.74266 5.68232C4.58008 5.68232 5.10131 5.12753 5.10131 4.4342C5.0857 3.72527 4.58008 3.18587 3.75854 3.18587C2.93709 3.18587 2.4 3.72527 2.4 4.4342C2.4 5.12753 2.92112 5.68232 3.72701 5.68232H3.74266ZM8.6514 13.8937V9.85897C8.6514 9.64304 8.667 9.42732 8.73042 9.27296C8.90401 8.84153 9.29915 8.39471 9.96255 8.39471C10.8315 8.39471 11.1791 9.05725 11.1791 10.0285V13.8937H13.5803V9.751C13.5803 7.53184 12.3956 6.49922 10.8156 6.49922C9.54177 6.49922 8.9706 7.19937 8.65146 7.69167V7.71656H8.63543C8.6407 7.70832 8.64605 7.70003 8.65146 7.69167V6.66876H6.25007C6.28158 7.3467 6.25007 13.8937 6.25007 13.8937H8.6514Z" fill="#C16060"/>
</svg>
