<svg width="16" height="17" viewBox="0 0 16 17" fill="none" xmlns="http://www.w3.org/2000/svg">
<path d="M5.02601 15.5C11.0636 15.5 14.3673 10.497 14.3673 6.16585C14.3673 6.0251 14.3673 5.88435 14.3609 5.7436C15.0012 5.28297 15.5582 4.70079 16 4.04183C15.411 4.30413 14.7771 4.47687 14.1112 4.56004C14.7899 4.15699 15.3085 3.51083 15.5582 2.74311C14.9244 3.12057 14.2201 3.38927 13.471 3.53642C12.8691 2.89665 12.0176 2.5 11.0764 2.5C9.26451 2.5 7.79192 3.97146 7.79192 5.78199C7.79192 6.03789 7.82393 6.2874 7.87515 6.53051C5.14766 6.39616 2.72749 5.08465 1.10764 3.10138C0.825931 3.5876 0.665866 4.15059 0.665866 4.75197C0.665866 5.89075 1.2485 6.89518 2.12565 7.48376C1.58784 7.46457 1.08203 7.31742 0.640256 7.07431C0.640256 7.08711 0.640256 7.0999 0.640256 7.11909C0.640256 8.70571 1.77351 10.0364 3.27171 10.3371C2.9964 10.4139 2.70828 10.4523 2.40736 10.4523C2.19608 10.4523 1.9912 10.4331 1.79272 10.3947C2.20888 11.6998 3.42537 12.6467 4.85954 12.6722C3.73269 13.5551 2.31773 14.0797 0.781113 14.0797C0.518608 14.0797 0.256102 14.0669 0 14.0349C1.44698 14.9562 3.17567 15.5 5.02601 15.5Z" fill="#C16060"/>
</svg>
